# xmcd CD database file
#
# Track frame offsets:
#	150
#	47505
#	91412
#	104272
#	113397
#	138070
#	150605
#	174187
#	205785
#	248877
#	269250
#	286870
#	313105
#
# Disc length: 4458 seconds
#
# Revision: 0
# Processed by: cddbd v1.5PL3 Copyright (c) Steve Scherf et al.
# Submitted via: CDex 1.51
#
DISCID=a011680d
DTITLE=Mendelssohn and Liszt - 聴きたくてメンデルゾーン＆リスト〜歌の翼に・愛の夢
DYEAR=1900
DGENRE=Classical
TTITLE0=Felix Mendelssohn=Bartholdy/交響曲第4番イ長調《イタリア》第1楽章:ｱﾚｸﾞﾛ･ｳﾞｨｳﾞｧｰﾁｪ
TTITLE1=ヴァイオリン協奏曲ホ短調第1楽章:ｱﾚｸﾞﾛ･ﾓﾙﾄ･ｱﾊﾟｯｼｮﾅｰﾄ
TTITLE2=歌の翼に
TTITLE3=春の歌（《無言歌集》）
TTITLE4=序曲《フィガロの洞窟》から
TTITLE5=ヴェネツィアの舟歌?（《無言歌集》）
TTITLE6=劇音楽《真夏の夜の夢》−結婚行進曲
TTITLE7=Franz･Liszt/交響詩《前奏曲》から
TTITLE8=ハンガリー狂詩曲第2番嬰ハ短調
TTITLE9=愛の夢第3番変イ長調
TTITLE10=コンソレーション第3番
TTITLE11=ピアノ協奏曲第1番変ホ長調第1楽章:ｱﾚｸﾞﾛ･マエストーソ
TTITLE12=ラ・カンパネッラ
EXTD=
EXTT0=
EXTT1=
EXTT2=
EXTT3=
EXTT4=
EXTT5=
EXTT6=
EXTT7=
EXTT8=
EXTT9=
EXTT10=
EXTT11=
EXTT12=
PLAYORDER=
